<svg width="728" height="183" viewBox="0 0 728 183" fill="none" xmlns="http://www.w3.org/2000/svg">
<mask id="path-1-outside-1_222_4" maskUnits="userSpaceOnUse" x="0" y="0" width="728" height="183" fill="black">
<rect fill="white" width="728" height="183"/>
<path fill-rule="evenodd" clip-rule="evenodd" d="M68.2993 7.57443C76.343 2.80856 86.3494 2.80849 94.3931 7.57443L146.163 38.2484C153.93 42.8505 158.692 51.2038 158.692 60.2254V122.775C158.692 131.796 153.93 140.149 146.163 144.752L94.3931 175.426C86.3494 180.192 76.343 180.191 68.2993 175.426L16.5296 144.752C8.76242 140.149 4 131.796 4 122.775V60.2254C4 51.2037 8.76242 42.8505 16.5296 38.2484L68.2993 7.57443ZM85.004 44.286C82.8708 43.0012 80.2016 42.9983 78.0657 44.2786L46.6851 63.0884C42.3192 65.7055 42.3303 72.0312 46.7057 74.6326L78.173 93.3408C78.3089 93.4216 78.3921 93.5681 78.3921 93.726V130.818C78.3922 136.04 84.0912 139.269 88.5774 136.589L119.594 118.057C121.626 116.843 122.87 114.652 122.87 112.287V70.8923C122.87 68.5357 121.635 66.3509 119.615 65.134L85.004 44.286Z"/>
<path d="M240.385 137.457C233.22 137.457 226.857 136.223 221.298 133.754C215.862 131.163 211.291 127.645 207.584 123.202C204.002 118.635 201.284 113.513 199.431 107.836C197.577 102.158 196.651 96.2338 196.651 90.0626C196.651 83.8914 197.577 77.9671 199.431 72.2897C201.284 66.6122 204.002 61.5518 207.584 57.1086C211.291 52.6654 215.862 49.2095 221.298 46.741C226.857 44.1492 233.22 42.8532 240.385 42.8532C249.404 42.8532 257.249 45.0131 263.921 49.3329C270.716 53.6528 275.719 60.3176 278.931 69.3275L260.77 76.3626C259.288 71.6725 256.879 67.9081 253.543 65.0694C250.207 62.1072 245.821 60.6262 240.385 60.6262C234.95 60.6262 230.502 62.0455 227.043 64.8843C223.707 67.723 221.236 71.364 219.63 75.8072C218.024 80.2505 217.221 85.0023 217.221 90.0626C217.221 95.123 218.024 99.9365 219.63 104.503C221.236 108.946 223.707 112.587 227.043 115.426C230.502 118.141 234.95 119.499 240.385 119.499C245.821 119.499 250.207 118.08 253.543 115.241C256.879 112.402 259.288 108.638 260.77 103.948L278.931 110.983C275.719 119.869 270.716 126.534 263.921 130.977C257.249 135.297 249.404 137.457 240.385 137.457Z"/>
<path d="M347.217 135.791L345.735 120.425V78.214C345.735 72.2897 343.943 67.8464 340.361 64.8843C336.778 61.7987 331.774 60.2559 325.35 60.2559C320.408 60.2559 315.528 61.2433 310.71 63.218C306.015 65.0694 301.691 67.9698 297.738 71.9194L286.248 58.4045C292.178 52.8505 298.479 48.901 305.151 46.5559C311.822 44.0874 319.111 42.8532 327.018 42.8532C339.372 42.8532 348.947 46.0005 355.742 52.2951C362.66 58.4663 366.12 67.1059 366.12 78.214V135.791H347.217ZM318.864 137.457C312.069 137.457 306.015 136.223 300.703 133.754C295.514 131.286 291.437 127.83 288.472 123.387C285.631 118.944 284.21 113.76 284.21 107.836C284.21 102.775 285.26 98.3937 287.36 94.691C289.584 90.9883 292.426 88.0878 295.885 85.9896C298.85 84.1383 302.309 82.8423 306.262 82.1018C310.216 81.2378 314.355 80.8059 318.679 80.8059H347.403V96.1721H321.644C319.42 96.1721 317.196 96.4189 314.972 96.9126C312.749 97.2829 310.772 98.0234 309.042 99.1342C307.807 100.122 306.757 101.356 305.892 102.837C305.151 104.318 304.78 106.046 304.78 108.021C304.78 111.97 306.262 115.118 309.228 117.463C312.316 119.684 316.393 120.795 321.458 120.795C325.906 120.795 329.921 119.808 333.504 117.833C337.21 115.858 340.175 113.143 342.399 109.687C344.623 106.231 345.735 102.343 345.735 98.0234L352.036 108.206C350.553 114.624 348.206 120.054 344.994 124.498C341.781 128.818 337.952 132.088 333.504 134.31C329.056 136.408 324.176 137.457 318.864 137.457Z"/>
<path d="M379.823 135.791V44.5194H400.578V69.1424L396.687 69.6978C397.304 64.3906 399.096 59.7622 402.061 55.8127C405.026 51.7397 408.609 48.5924 412.809 46.3708C417.133 44.0257 421.395 42.8532 425.596 42.8532C428.561 42.8532 431.403 43.2235 434.121 43.964C436.839 44.7046 439.68 45.9388 442.645 47.6667L432.638 66.1802C431.279 65.3162 429.488 64.6374 427.264 64.1437C425.164 63.5266 423.125 63.218 421.148 63.218C418.554 63.218 415.96 63.7117 413.365 64.6991C410.894 65.6865 408.67 67.2293 406.694 69.3275C404.717 71.3023 403.234 73.8942 402.246 77.1032C401.628 78.8311 401.134 81.1144 400.764 83.9532C400.517 86.6685 400.393 90.4946 400.393 95.4315V135.791H379.823Z"/>
<path d="M496.002 137.457C491.06 137.457 486.365 136.47 481.918 134.495C477.594 132.52 473.825 129.496 470.613 125.423C467.401 121.227 464.992 115.796 463.386 109.132L468.76 110.427V135.791H448.375V6.75192H468.76V70.068H464.127C465.363 64.2672 467.463 59.3919 470.428 55.4424C473.517 51.3694 477.223 48.2838 481.547 46.1856C485.995 43.964 490.813 42.8532 496.002 42.8532C503.414 42.8532 510.086 44.7663 516.016 48.5924C522.069 52.2951 526.888 57.664 530.47 64.6991C534.053 71.7343 535.845 80.1887 535.845 90.0626C535.845 99.0725 534.177 107.157 530.841 114.315C527.629 121.474 523.058 127.151 517.128 131.348C511.198 135.421 504.156 137.457 496.002 137.457ZM490.998 118.573C495.816 118.573 500.017 117.401 503.6 115.056C507.306 112.711 510.147 109.378 512.124 105.059C514.101 100.739 515.089 95.7401 515.089 90.0626C515.089 84.3851 514.101 79.3865 512.124 75.0667C510.147 70.7469 507.306 67.4144 503.6 65.0694C500.017 62.7244 495.816 61.5518 490.998 61.5518C486.18 61.5518 481.918 62.7861 478.211 65.2545C474.629 67.5996 471.849 70.932 469.872 75.2518C467.895 79.4482 466.907 84.3851 466.907 90.0626C466.907 95.7401 467.895 100.739 469.872 105.059C471.849 109.378 474.629 112.711 478.211 115.056C481.918 117.401 486.18 118.573 490.998 118.573Z"/>
<path d="M587.567 137.457C578.919 137.457 571.135 135.421 564.217 131.348C557.298 127.275 551.862 121.659 547.909 114.5C544.079 107.342 542.164 99.1959 542.164 90.0626C542.164 80.9293 544.079 72.7834 547.909 65.6248C551.862 58.4663 557.237 52.9122 564.032 48.9627C570.95 44.8897 578.795 42.8532 587.567 42.8532C596.462 42.8532 604.245 44.8897 610.917 48.9627C617.711 52.9122 623.086 58.4663 627.039 65.6248C630.992 72.7834 632.969 80.9293 632.969 90.0626C632.969 99.1959 630.992 107.342 627.039 114.5C623.209 121.659 617.835 127.275 610.917 131.348C604.122 135.421 596.338 137.457 587.567 137.457ZM587.752 119.314C592.817 119.314 597.203 118.141 600.909 115.796C604.616 113.451 607.457 110.057 609.434 105.614C611.411 101.171 612.399 95.9869 612.399 90.0626C612.399 84.0149 611.411 78.8311 609.434 74.5113C607.457 70.068 604.616 66.6739 600.909 64.3289C597.203 61.9838 592.817 60.8113 587.752 60.8113C582.44 60.8113 577.93 62.0455 574.224 64.514C570.518 66.859 567.676 70.1915 565.699 74.5113C563.723 78.8311 562.734 84.0149 562.734 90.0626C562.734 95.9869 563.723 101.171 565.699 105.614C567.676 110.057 570.518 113.451 574.224 115.796C577.93 118.141 582.44 119.314 587.752 119.314Z"/>
<path d="M643.573 135.791V44.5194H664.143V64.6991L660.437 65.6248C662.043 60.3176 664.39 55.9978 667.479 52.6654C670.567 49.3329 674.15 46.8645 678.227 45.26C682.427 43.6555 686.813 42.8532 691.384 42.8532C701.639 42.8532 709.607 45.8154 715.29 51.7397C721.097 57.5406 724 65.8716 724 76.7329V135.791H703.43V84.3234C703.43 76.1775 701.947 70.1915 698.982 66.3653C696.017 62.5392 691.446 60.6262 685.269 60.6262C680.698 60.6262 676.806 61.737 673.594 63.9586C670.505 66.0568 668.158 69.3892 666.552 73.9559C664.946 78.5225 664.143 84.3234 664.143 91.3585V135.791H643.573Z"/>
</mask>
<path fill-rule="evenodd" clip-rule="evenodd" d="M68.2993 7.57443C76.343 2.80856 86.3494 2.80849 94.3931 7.57443L146.163 38.2484C153.93 42.8505 158.692 51.2038 158.692 60.2254V122.775C158.692 131.796 153.93 140.149 146.163 144.752L94.3931 175.426C86.3494 180.192 76.343 180.191 68.2993 175.426L16.5296 144.752C8.76242 140.149 4 131.796 4 122.775V60.2254C4 51.2037 8.76242 42.8505 16.5296 38.2484L68.2993 7.57443ZM85.004 44.286C82.8708 43.0012 80.2016 42.9983 78.0657 44.2786L46.6851 63.0884C42.3192 65.7055 42.3303 72.0312 46.7057 74.6326L78.173 93.3408C78.3089 93.4216 78.3921 93.5681 78.3921 93.726V130.818C78.3922 136.04 84.0912 139.269 88.5774 136.589L119.594 118.057C121.626 116.843 122.87 114.652 122.87 112.287V70.8923C122.87 68.5357 121.635 66.3509 119.615 65.134L85.004 44.286Z" fill="#E6E6E6"/>
<path d="M240.385 137.457C233.22 137.457 226.857 136.223 221.298 133.754C215.862 131.163 211.291 127.645 207.584 123.202C204.002 118.635 201.284 113.513 199.431 107.836C197.577 102.158 196.651 96.2338 196.651 90.0626C196.651 83.8914 197.577 77.9671 199.431 72.2897C201.284 66.6122 204.002 61.5518 207.584 57.1086C211.291 52.6654 215.862 49.2095 221.298 46.741C226.857 44.1492 233.22 42.8532 240.385 42.8532C249.404 42.8532 257.249 45.0131 263.921 49.3329C270.716 53.6528 275.719 60.3176 278.931 69.3275L260.77 76.3626C259.288 71.6725 256.879 67.9081 253.543 65.0694C250.207 62.1072 245.821 60.6262 240.385 60.6262C234.95 60.6262 230.502 62.0455 227.043 64.8843C223.707 67.723 221.236 71.364 219.63 75.8072C218.024 80.2505 217.221 85.0023 217.221 90.0626C217.221 95.123 218.024 99.9365 219.63 104.503C221.236 108.946 223.707 112.587 227.043 115.426C230.502 118.141 234.95 119.499 240.385 119.499C245.821 119.499 250.207 118.08 253.543 115.241C256.879 112.402 259.288 108.638 260.77 103.948L278.931 110.983C275.719 119.869 270.716 126.534 263.921 130.977C257.249 135.297 249.404 137.457 240.385 137.457Z" fill="#E6E6E6"/>
<path d="M347.217 135.791L345.735 120.425V78.214C345.735 72.2897 343.943 67.8464 340.361 64.8843C336.778 61.7987 331.774 60.2559 325.35 60.2559C320.408 60.2559 315.528 61.2433 310.71 63.218C306.015 65.0694 301.691 67.9698 297.738 71.9194L286.248 58.4045C292.178 52.8505 298.479 48.901 305.151 46.5559C311.822 44.0874 319.111 42.8532 327.018 42.8532C339.372 42.8532 348.947 46.0005 355.742 52.2951C362.66 58.4663 366.12 67.1059 366.12 78.214V135.791H347.217ZM318.864 137.457C312.069 137.457 306.015 136.223 300.703 133.754C295.514 131.286 291.437 127.83 288.472 123.387C285.631 118.944 284.21 113.76 284.21 107.836C284.21 102.775 285.26 98.3937 287.36 94.691C289.584 90.9883 292.426 88.0878 295.885 85.9896C298.85 84.1383 302.309 82.8423 306.262 82.1018C310.216 81.2378 314.355 80.8059 318.679 80.8059H347.403V96.1721H321.644C319.42 96.1721 317.196 96.4189 314.972 96.9126C312.749 97.2829 310.772 98.0234 309.042 99.1342C307.807 100.122 306.757 101.356 305.892 102.837C305.151 104.318 304.78 106.046 304.78 108.021C304.78 111.97 306.262 115.118 309.228 117.463C312.316 119.684 316.393 120.795 321.458 120.795C325.906 120.795 329.921 119.808 333.504 117.833C337.21 115.858 340.175 113.143 342.399 109.687C344.623 106.231 345.735 102.343 345.735 98.0234L352.036 108.206C350.553 114.624 348.206 120.054 344.994 124.498C341.781 128.818 337.952 132.088 333.504 134.31C329.056 136.408 324.176 137.457 318.864 137.457Z" fill="#E6E6E6"/>
<path d="M379.823 135.791V44.5194H400.578V69.1424L396.687 69.6978C397.304 64.3906 399.096 59.7622 402.061 55.8127C405.026 51.7397 408.609 48.5924 412.809 46.3708C417.133 44.0257 421.395 42.8532 425.596 42.8532C428.561 42.8532 431.403 43.2235 434.121 43.964C436.839 44.7046 439.68 45.9388 442.645 47.6667L432.638 66.1802C431.279 65.3162 429.488 64.6374 427.264 64.1437C425.164 63.5266 423.125 63.218 421.148 63.218C418.554 63.218 415.96 63.7117 413.365 64.6991C410.894 65.6865 408.67 67.2293 406.694 69.3275C404.717 71.3023 403.234 73.8942 402.246 77.1032C401.628 78.8311 401.134 81.1144 400.764 83.9532C400.517 86.6685 400.393 90.4946 400.393 95.4315V135.791H379.823Z" fill="#E6E6E6"/>
<path d="M496.002 137.457C491.06 137.457 486.365 136.47 481.918 134.495C477.594 132.52 473.825 129.496 470.613 125.423C467.401 121.227 464.992 115.796 463.386 109.132L468.76 110.427V135.791H448.375V6.75192H468.76V70.068H464.127C465.363 64.2672 467.463 59.3919 470.428 55.4424C473.517 51.3694 477.223 48.2838 481.547 46.1856C485.995 43.964 490.813 42.8532 496.002 42.8532C503.414 42.8532 510.086 44.7663 516.016 48.5924C522.069 52.2951 526.888 57.664 530.47 64.6991C534.053 71.7343 535.845 80.1887 535.845 90.0626C535.845 99.0725 534.177 107.157 530.841 114.315C527.629 121.474 523.058 127.151 517.128 131.348C511.198 135.421 504.156 137.457 496.002 137.457ZM490.998 118.573C495.816 118.573 500.017 117.401 503.6 115.056C507.306 112.711 510.147 109.378 512.124 105.059C514.101 100.739 515.089 95.7401 515.089 90.0626C515.089 84.3851 514.101 79.3865 512.124 75.0667C510.147 70.7469 507.306 67.4144 503.6 65.0694C500.017 62.7244 495.816 61.5518 490.998 61.5518C486.18 61.5518 481.918 62.7861 478.211 65.2545C474.629 67.5996 471.849 70.932 469.872 75.2518C467.895 79.4482 466.907 84.3851 466.907 90.0626C466.907 95.7401 467.895 100.739 469.872 105.059C471.849 109.378 474.629 112.711 478.211 115.056C481.918 117.401 486.18 118.573 490.998 118.573Z" fill="#E6E6E6"/>
<path d="M587.567 137.457C578.919 137.457 571.135 135.421 564.217 131.348C557.298 127.275 551.862 121.659 547.909 114.5C544.079 107.342 542.164 99.1959 542.164 90.0626C542.164 80.9293 544.079 72.7834 547.909 65.6248C551.862 58.4663 557.237 52.9122 564.032 48.9627C570.95 44.8897 578.795 42.8532 587.567 42.8532C596.462 42.8532 604.245 44.8897 610.917 48.9627C617.711 52.9122 623.086 58.4663 627.039 65.6248C630.992 72.7834 632.969 80.9293 632.969 90.0626C632.969 99.1959 630.992 107.342 627.039 114.5C623.209 121.659 617.835 127.275 610.917 131.348C604.122 135.421 596.338 137.457 587.567 137.457ZM587.752 119.314C592.817 119.314 597.203 118.141 600.909 115.796C604.616 113.451 607.457 110.057 609.434 105.614C611.411 101.171 612.399 95.9869 612.399 90.0626C612.399 84.0149 611.411 78.8311 609.434 74.5113C607.457 70.068 604.616 66.6739 600.909 64.3289C597.203 61.9838 592.817 60.8113 587.752 60.8113C582.44 60.8113 577.93 62.0455 574.224 64.514C570.518 66.859 567.676 70.1915 565.699 74.5113C563.723 78.8311 562.734 84.0149 562.734 90.0626C562.734 95.9869 563.723 101.171 565.699 105.614C567.676 110.057 570.518 113.451 574.224 115.796C577.93 118.141 582.44 119.314 587.752 119.314Z" fill="#E6E6E6"/>
<path d="M643.573 135.791V44.5194H664.143V64.6991L660.437 65.6248C662.043 60.3176 664.39 55.9978 667.479 52.6654C670.567 49.3329 674.15 46.8645 678.227 45.26C682.427 43.6555 686.813 42.8532 691.384 42.8532C701.639 42.8532 709.607 45.8154 715.29 51.7397C721.097 57.5406 724 65.8716 724 76.7329V135.791H703.43V84.3234C703.43 76.1775 701.947 70.1915 698.982 66.3653C696.017 62.5392 691.446 60.6262 685.269 60.6262C680.698 60.6262 676.806 61.737 673.594 63.9586C670.505 66.0568 668.158 69.3892 666.552 73.9559C664.946 78.5225 664.143 84.3234 664.143 91.3585V135.791H643.573Z" fill="#E6E6E6"/>
<path fill-rule="evenodd" clip-rule="evenodd" d="M68.2993 7.57443C76.343 2.80856 86.3494 2.80849 94.3931 7.57443L146.163 38.2484C153.93 42.8505 158.692 51.2038 158.692 60.2254V122.775C158.692 131.796 153.93 140.149 146.163 144.752L94.3931 175.426C86.3494 180.192 76.343 180.191 68.2993 175.426L16.5296 144.752C8.76242 140.149 4 131.796 4 122.775V60.2254C4 51.2037 8.76242 42.8505 16.5296 38.2484L68.2993 7.57443ZM85.004 44.286C82.8708 43.0012 80.2016 42.9983 78.0657 44.2786L46.6851 63.0884C42.3192 65.7055 42.3303 72.0312 46.7057 74.6326L78.173 93.3408C78.3089 93.4216 78.3921 93.5681 78.3921 93.726V130.818C78.3922 136.04 84.0912 139.269 88.5774 136.589L119.594 118.057C121.626 116.843 122.87 114.652 122.87 112.287V70.8923C122.87 68.5357 121.635 66.3509 119.615 65.134L85.004 44.286Z" stroke="#101A24" stroke-width="8" mask="url(#path-1-outside-1_222_4)"/>
<path d="M240.385 137.457C233.22 137.457 226.857 136.223 221.298 133.754C215.862 131.163 211.291 127.645 207.584 123.202C204.002 118.635 201.284 113.513 199.431 107.836C197.577 102.158 196.651 96.2338 196.651 90.0626C196.651 83.8914 197.577 77.9671 199.431 72.2897C201.284 66.6122 204.002 61.5518 207.584 57.1086C211.291 52.6654 215.862 49.2095 221.298 46.741C226.857 44.1492 233.22 42.8532 240.385 42.8532C249.404 42.8532 257.249 45.0131 263.921 49.3329C270.716 53.6528 275.719 60.3176 278.931 69.3275L260.77 76.3626C259.288 71.6725 256.879 67.9081 253.543 65.0694C250.207 62.1072 245.821 60.6262 240.385 60.6262C234.95 60.6262 230.502 62.0455 227.043 64.8843C223.707 67.723 221.236 71.364 219.63 75.8072C218.024 80.2505 217.221 85.0023 217.221 90.0626C217.221 95.123 218.024 99.9365 219.63 104.503C221.236 108.946 223.707 112.587 227.043 115.426C230.502 118.141 234.95 119.499 240.385 119.499C245.821 119.499 250.207 118.08 253.543 115.241C256.879 112.402 259.288 108.638 260.77 103.948L278.931 110.983C275.719 119.869 270.716 126.534 263.921 130.977C257.249 135.297 249.404 137.457 240.385 137.457Z" stroke="#101A24" stroke-width="8" mask="url(#path-1-outside-1_222_4)"/>
<path d="M347.217 135.791L345.735 120.425V78.214C345.735 72.2897 343.943 67.8464 340.361 64.8843C336.778 61.7987 331.774 60.2559 325.35 60.2559C320.408 60.2559 315.528 61.2433 310.71 63.218C306.015 65.0694 301.691 67.9698 297.738 71.9194L286.248 58.4045C292.178 52.8505 298.479 48.901 305.151 46.5559C311.822 44.0874 319.111 42.8532 327.018 42.8532C339.372 42.8532 348.947 46.0005 355.742 52.2951C362.66 58.4663 366.12 67.1059 366.12 78.214V135.791H347.217ZM318.864 137.457C312.069 137.457 306.015 136.223 300.703 133.754C295.514 131.286 291.437 127.83 288.472 123.387C285.631 118.944 284.21 113.76 284.21 107.836C284.21 102.775 285.26 98.3937 287.36 94.691C289.584 90.9883 292.426 88.0878 295.885 85.9896C298.85 84.1383 302.309 82.8423 306.262 82.1018C310.216 81.2378 314.355 80.8059 318.679 80.8059H347.403V96.1721H321.644C319.42 96.1721 317.196 96.4189 314.972 96.9126C312.749 97.2829 310.772 98.0234 309.042 99.1342C307.807 100.122 306.757 101.356 305.892 102.837C305.151 104.318 304.78 106.046 304.78 108.021C304.78 111.97 306.262 115.118 309.228 117.463C312.316 119.684 316.393 120.795 321.458 120.795C325.906 120.795 329.921 119.808 333.504 117.833C337.21 115.858 340.175 113.143 342.399 109.687C344.623 106.231 345.735 102.343 345.735 98.0234L352.036 108.206C350.553 114.624 348.206 120.054 344.994 124.498C341.781 128.818 337.952 132.088 333.504 134.31C329.056 136.408 324.176 137.457 318.864 137.457Z" stroke="#101A24" stroke-width="8" mask="url(#path-1-outside-1_222_4)"/>
<path d="M379.823 135.791V44.5194H400.578V69.1424L396.687 69.6978C397.304 64.3906 399.096 59.7622 402.061 55.8127C405.026 51.7397 408.609 48.5924 412.809 46.3708C417.133 44.0257 421.395 42.8532 425.596 42.8532C428.561 42.8532 431.403 43.2235 434.121 43.964C436.839 44.7046 439.68 45.9388 442.645 47.6667L432.638 66.1802C431.279 65.3162 429.488 64.6374 427.264 64.1437C425.164 63.5266 423.125 63.218 421.148 63.218C418.554 63.218 415.96 63.7117 413.365 64.6991C410.894 65.6865 408.67 67.2293 406.694 69.3275C404.717 71.3023 403.234 73.8942 402.246 77.1032C401.628 78.8311 401.134 81.1144 400.764 83.9532C400.517 86.6685 400.393 90.4946 400.393 95.4315V135.791H379.823Z" stroke="#101A24" stroke-width="8" mask="url(#path-1-outside-1_222_4)"/>
<path d="M496.002 137.457C491.06 137.457 486.365 136.47 481.918 134.495C477.594 132.52 473.825 129.496 470.613 125.423C467.401 121.227 464.992 115.796 463.386 109.132L468.76 110.427V135.791H448.375V6.75192H468.76V70.068H464.127C465.363 64.2672 467.463 59.3919 470.428 55.4424C473.517 51.3694 477.223 48.2838 481.547 46.1856C485.995 43.964 490.813 42.8532 496.002 42.8532C503.414 42.8532 510.086 44.7663 516.016 48.5924C522.069 52.2951 526.888 57.664 530.47 64.6991C534.053 71.7343 535.845 80.1887 535.845 90.0626C535.845 99.0725 534.177 107.157 530.841 114.315C527.629 121.474 523.058 127.151 517.128 131.348C511.198 135.421 504.156 137.457 496.002 137.457ZM490.998 118.573C495.816 118.573 500.017 117.401 503.6 115.056C507.306 112.711 510.147 109.378 512.124 105.059C514.101 100.739 515.089 95.7401 515.089 90.0626C515.089 84.3851 514.101 79.3865 512.124 75.0667C510.147 70.7469 507.306 67.4144 503.6 65.0694C500.017 62.7244 495.816 61.5518 490.998 61.5518C486.18 61.5518 481.918 62.7861 478.211 65.2545C474.629 67.5996 471.849 70.932 469.872 75.2518C467.895 79.4482 466.907 84.3851 466.907 90.0626C466.907 95.7401 467.895 100.739 469.872 105.059C471.849 109.378 474.629 112.711 478.211 115.056C481.918 117.401 486.18 118.573 490.998 118.573Z" stroke="#101A24" stroke-width="8" mask="url(#path-1-outside-1_222_4)"/>
<path d="M587.567 137.457C578.919 137.457 571.135 135.421 564.217 131.348C557.298 127.275 551.862 121.659 547.909 114.5C544.079 107.342 542.164 99.1959 542.164 90.0626C542.164 80.9293 544.079 72.7834 547.909 65.6248C551.862 58.4663 557.237 52.9122 564.032 48.9627C570.95 44.8897 578.795 42.8532 587.567 42.8532C596.462 42.8532 604.245 44.8897 610.917 48.9627C617.711 52.9122 623.086 58.4663 627.039 65.6248C630.992 72.7834 632.969 80.9293 632.969 90.0626C632.969 99.1959 630.992 107.342 627.039 114.5C623.209 121.659 617.835 127.275 610.917 131.348C604.122 135.421 596.338 137.457 587.567 137.457ZM587.752 119.314C592.817 119.314 597.203 118.141 600.909 115.796C604.616 113.451 607.457 110.057 609.434 105.614C611.411 101.171 612.399 95.9869 612.399 90.0626C612.399 84.0149 611.411 78.8311 609.434 74.5113C607.457 70.068 604.616 66.6739 600.909 64.3289C597.203 61.9838 592.817 60.8113 587.752 60.8113C582.44 60.8113 577.93 62.0455 574.224 64.514C570.518 66.859 567.676 70.1915 565.699 74.5113C563.723 78.8311 562.734 84.0149 562.734 90.0626C562.734 95.9869 563.723 101.171 565.699 105.614C567.676 110.057 570.518 113.451 574.224 115.796C577.93 118.141 582.44 119.314 587.752 119.314Z" stroke="#101A24" stroke-width="8" mask="url(#path-1-outside-1_222_4)"/>
<path d="M643.573 135.791V44.5194H664.143V64.6991L660.437 65.6248C662.043 60.3176 664.39 55.9978 667.479 52.6654C670.567 49.3329 674.15 46.8645 678.227 45.26C682.427 43.6555 686.813 42.8532 691.384 42.8532C701.639 42.8532 709.607 45.8154 715.29 51.7397C721.097 57.5406 724 65.8716 724 76.7329V135.791H703.43V84.3234C703.43 76.1775 701.947 70.1915 698.982 66.3653C696.017 62.5392 691.446 60.6262 685.269 60.6262C680.698 60.6262 676.806 61.737 673.594 63.9586C670.505 66.0568 668.158 69.3892 666.552 73.9559C664.946 78.5225 664.143 84.3234 664.143 91.3585V135.791H643.573Z" stroke="#101A24" stroke-width="8" mask="url(#path-1-outside-1_222_4)"/>
</svg>
